# xmcd CD database file
#
# Track frame offsets:
#	150
#	17100
#	31328
#	50965
#	67185
#	84975
#	99953
#	118170
#	134440
#	159488
#	176838
#	193595
#	210573
#	231405
#	251035
#	267605
#	279933
#	298165
#
# Disc length: 4484 seconds
#
# Revision: 2
# Processed by: cddbd v1.5.1PL0 Copyright (c) Steve Scherf et al.
# Submitted via: CDex 1.51
#
DISCID=18118212
DTITLE=Hellbillies - LIVe LAGA
DYEAR=1995
DGENRE=Country
TTITLE0=På Ål Stasjon
TTITLE1=Rakafisk
TTITLE2=Ei krasafaren steinbu
TTITLE3=Bra den eg har
TTITLE4=So som so
TTITLE5=Eitt skott te
TTITLE6=Dårleg tid
TTITLE7=Syver i Armod-Bråta
TTITLE8=Lakafant
TTITLE9=Gamle Bry'n
TTITLE10=Heite Hilde
TTITLE11=Som ein båt på land
TTITLE12=Tolleiv
TTITLE13=Som eit lauv i eit vindkast
TTITLE14=Treski blues
TTITLE15=Aksjon på Ål
TTITLE16=Mas, mas
TTITLE17=Surr, surr
EXTD=YEAR: 1995
EXTT0=
EXTT1=
EXTT2=
EXTT3=
EXTT4=
EXTT5=
EXTT6=
EXTT7=
EXTT8=
EXTT9=
EXTT10=
EXTT11=
EXTT12=
EXTT13=
EXTT14=
EXTT15=
EXTT16=
EXTT17=
PLAYORDER=
